<svg id="Layer_1" data-name="Layer 1" xmlns="http://www.w3.org/2000/svg" xmlns:xlink="http://www.w3.org/1999/xlink" viewBox="0 0 4797.96 2422.04"><defs><style>.cls-1{fill:url(#linear-gradient);}.cls-2{fill:url(#linear-gradient-2);}.cls-3{fill:url(#linear-gradient-3);}.cls-4{fill:url(#linear-gradient-4);}.cls-5{fill:url(#linear-gradient-5);}.cls-6{fill:url(#linear-gradient-6);}</style><linearGradient id="linear-gradient" x1="3585.54" y1="223.42" x2="4788.52" y2="930.21" gradientUnits="userSpaceOnUse"><stop offset="0" stop-color="#08b6bf"/><stop offset="0.65" stop-color="#064a72"/><stop offset="1" stop-color="#172931"/></linearGradient><linearGradient id="linear-gradient-2" x1="3122.21" y1="1143.79" x2="4212.76" y2="1822.96" gradientUnits="userSpaceOnUse"><stop offset="0" stop-color="#08b6bf"/><stop offset="0.54" stop-color="#064a72"/><stop offset="1" stop-color="#172931"/></linearGradient><linearGradient id="linear-gradient-3" x1="3126.71" y1="567.23" x2="4389.26" y2="1197.45" gradientUnits="userSpaceOnUse"><stop offset="0" stop-color="#08b6bf"/><stop offset="0.63" stop-color="#064a72"/><stop offset="1" stop-color="#172931"/></linearGradient><linearGradient id="linear-gradient-4" x1="709.54" y1="333.42" x2="1912.52" y2="1040.21" xlink:href="#linear-gradient"/><linearGradient id="linear-gradient-5" x1="246.21" y1="1253.79" x2="1336.76" y2="1932.96" xlink:href="#linear-gradient-2"/><linearGradient id="linear-gradient-6" x1="250.71" y1="677.23" x2="1513.26" y2="1307.45" xlink:href="#linear-gradient-3"/></defs><path class="cls-1" d="M4354,1562.36c-2.71-5.93-6.14-11.67-8-17.83-11.39-37.73-21.5-75.83-33.81-113.28q-27-82.05-56.49-163.35c-14.82-41-30.3-81.88-47.24-122.15Q4171.6,1058,4132,971.28c-18.17-39.78-38.16-78.83-58.07-117.86-18.6-36.46-37.28-72.93-57.55-108.57-30.25-53.21-61-106.23-93.26-158.32-33.51-54-68.43-107.27-104.09-160-28.62-42.35-58.54-84-89.22-125-28.16-37.67-57.67-74.46-87.41-111-25.24-31.05-51.63-61.26-77.53-91.83-12.33-14.54-24.57-29.15-37.08-43.55-4.45-5.11-9.79-9.53-14.35-14.57-2.38-2.64-4-5.95-7-10.69,58.33-18.12,114.55-36.09,168.31-60S3781.05-80.48,3831.77-110c4,1.82,7.39,3.14,10.56,4.81,34.78,18.23,68.93,37.65,104.46,54.45,31.32,14.82,64,27.24,96.42,39.79,49.58,19.16,100.65,34.23,152.53,46.68,23.3,5.59,46.94,10,70.59,14.17,26.56,4.67,53.2,9.14,80,12.43,24.79,3,49.8,4.57,74.74,6.52,37.3,2.91,74.66,4.89,112.1,3.73,15-.46,29.92-2.15,44.9-3.14,13.31-.88,26.7-1.09,40-2.42,24.21-2.42,48.42-5.08,72.52-8.35,19.77-2.68,39.41-6.24,59.05-9.7,9.52-1.68,18.87-4.18,28.37-6,3.13-.59,6.48-.09,10.77-.09.69,3.32,1.54,6.26,1.87,9.24,10.55,95.66,4.82,191.62,6.2,287.45.47,33-2.38,65.68-5.77,98.43-2.64,25.47-4.26,51-6.55,76.53-.62,6.91-2.18,13.75-3.08,20.65-1.67,12.85-3,25.74-4.78,38.58-2,14.73-4.34,29.43-6.59,44.13-3.93,25.64-7.34,51.37-12,76.88-4.66,25.23-10.33,50.3-16.13,75.33-6.29,27.17-12.6,54.37-20.08,81.27-8.43,30.27-17.91,60.29-27.43,90.28-6.54,20.6-13.26,41.21-21.08,61.4-14.72,38-30.05,75.84-45.59,113.58-21.27,51.67-46.59,101.63-73.81,150.67-19.58,35.28-39.92,70.24-61.49,104.46-22.26,35.3-45.8,69.91-69.92,104.11-19.85,28.14-41.38,55.22-62.14,82.78-1,1.29-1.72,2.72-2.57,4.08Z" transform="translate(0 110)"/><path class="cls-2" d="M2918.56,591.59a74.9,74.9,0,0,1,7.17,3.44c29.88,18,60,35.66,89.51,54.09,30.68,19.14,60.87,39,91.22,58.59,22.35,14.44,44.77,28.8,66.87,43.58,21,14,41.7,28.48,62.4,42.92,34.39,24,68.88,47.88,102.94,72.3,22.33,16,43.94,32.92,65.92,49.37,23,17.25,46.38,34.15,69.13,51.74,20.94,16.19,41.32,33,61.84,49.68q31.91,25.93,63.6,52.12c15.84,13.1,31.63,26.25,47.18,39.65,84.1,72.44,164.31,148.67,244,225.42,18.47,17.79,35.44,37,53.27,55.37,12.2,12.58,25,24.69,37,37.39,19.19,20.21,38,40.7,57,61.14q28.71,31,57.23,62.21c6.76,7.41,13.21,15.09,19.73,22.7q38.53,44.9,77,89.84c8.4,9.83,16.68,19.76,24.7,29.87,2.91,3.67,4.9,8,8,13.17-112.28,121.65-240.62,224.08-382.9,310.11-10.16-.12-14.93-7.22-21.1-11.65-15.68-11.27-30.95-23.06-46-35-17.91-14.2-35.8-28.46-53.11-43.31-32.91-28.24-65.81-56.5-97.92-85.55-22.21-20.1-43.46-41.19-64.45-62.46-26-26.32-51.4-53.15-76.77-80-41.45-43.87-79.59-90.31-116.68-137.48q-33.49-42.61-64.44-87-42.87-61.32-83.74-123.89c-14.43-22-27.28-45-40.32-67.79-14.47-25.29-29.36-50.43-42.25-76.44-24.82-50.11-48.7-100.64-72.35-151.26-27.22-58.23-49.82-118.18-70.07-178.84-17-51-32.52-102.42-47.31-154-9-31.41-15.32-63.51-23-95.26-1.93-8-4.53-15.86-6.65-23.82C2914.11,598.78,2913.36,594.93,2918.56,591.59Z" transform="translate(0 110)"/><path class="cls-3" d="M2883.89,42.79c17.87,3.05,34.55,6.08,51.28,8.72,25.67,4.06,51.27,8.85,77.11,11.5,29.48,3,59.22,3.72,88.79,6.07,28.88,2.29,58.28,2.36,85.8,12.33,15.55,5.63,30.54,12.76,45.39,20a302.76,302.76,0,0,1,33.55,18.68c15.92,10.39,31.91,20.88,46.5,32.82,25,20.46,49.84,41.21,73,63.44,24.14,23.13,46.71,47.79,69.12,72.46,22.84,25.16,45.63,50.46,66.69,76.94,31.93,40.15,62.86,81,93.26,122.24,22.37,30.32,43.22,61.63,64.76,92.49,30.41,43.58,58.15,88.66,85,134.29,18.67,31.79,38.27,63.09,57.4,94.64,24.95,41.15,49.73,82.4,74.78,123.49,15.37,25.21,31.18,50.17,46.69,75.3,26,42.07,51.69,84.27,77.77,126.27,20,32.18,40.46,64.1,60.55,96.22,21.1,33.76,41.79,67.75,63.07,101.41,29,45.87,58.41,91.53,87.64,137.28q39.17,61.32,78.31,122.65c6.86,10.76,6.64,14.8-1.5,24.91-8.71,10.8-17.39,21.63-26.44,32.17-2.51,2.93-6.32,4.86-10.83,8.21-4.17-6.56-7.43-11.58-10.58-16.65-31.85-51.27-63.14-102.85-95.71-153.69-20.79-32.46-42.89-64.21-65.47-95.59-22.19-30.84-45.65-60.88-68.72-91.15-16.82-22-33.48-44.23-51-65.8q-48.49-59.81-98-118.87c-19.54-23.23-39.47-46.25-60.57-68.21-28.77-29.95-58.65-58.94-88.38-88-17.4-17-34.82-34.12-53.33-50-29.14-25.07-58.76-49.68-89-73.55-27.94-22.06-56.34-43.7-85.68-64-35-24.3-71-47.4-107.06-70.36-39.38-25.07-79.46-49.17-119-74.07-59.77-37.69-120.38-74.27-177.68-115.33-31.39-22.49-62.87-45.06-92.33-69.71-34.34-28.72-66-60.23-88.71-98.54A170.51,170.51,0,0,1,2907,315.06c-11.89-32.66-19.34-66.27-25.58-100.35-7.27-39.72-5.16-79.48-5.21-119.27C2876.23,78.15,2879.05,61,2883.89,42.79Z" transform="translate(0 110)"/><path d="M2925.36,2152q-19.68,0-30.77-11.07t-11.1-31.74V2057H2905v51.62q0,13.21,5.41,19.14t15.06,5.94q9.77,0,15.19-5.94t5.41-19.14V2057h21v52.16q0,20.67-11.1,31.74T2925.36,2152Z" transform="translate(0 110)"/><path d="M3005.91,2150.39v-75.76h-29.58V2057h80.56v17.61h-29.58v75.76Z" transform="translate(0 110)"/><path d="M3088.85,2150.39v-75.76h-29.58V2057h80.55v17.61h-29.58v75.76Z" transform="translate(0 110)"/><path d="M3134.54,2150.39l41.07-93.37h21.13l41.47,93.37h-22.45L3181.82,2068h8.58l-33.94,82.43Zm20.73-20,5.42-16.4h47.8l5.55,16.4Z" transform="translate(0 110)"/><path d="M3247.85,2150.39V2057h40q12.42,0,21.4,4.07a31.54,31.54,0,0,1,13.86,11.67,32.56,32.56,0,0,1,4.89,18q0,10.53-4.89,18.07a30.7,30.7,0,0,1-13.86,11.47q-9,3.95-21.4,3.94H3259.6l9.77-9.34v35.48Zm21.52-33.08L3259.6,2107h27.07q9.78,0,14.79-4.27t5-12q0-7.74-5-11.94t-14.79-4.2H3259.6l9.77-10.27Zm37.38,33.08-23.25-33.88h23l23.25,33.88Z" transform="translate(0 110)"/><path d="M3332.76,2150.39l41.07-93.37H3395l41.47,93.37H3414L3380,2068h8.58l-33.94,82.43Zm20.73-20,5.42-16.4h47.8l5.55,16.4Z" transform="translate(0 110)"/><path d="M3446.07,2150.39V2057h17.69l54.54,67.23h-8.58V2057h21.13v93.37h-17.7l-54.54-67.22h8.59v67.22Z" transform="translate(0 110)"/><path d="M3597,2152a55,55,0,0,1-19.87-3.53,46.29,46.29,0,0,1-26.41-25.41,51.49,51.49,0,0,1,0-38.68,46.05,46.05,0,0,1,10.56-15.34,47.29,47.29,0,0,1,16-10.07,58,58,0,0,1,41.66.67,42.23,42.23,0,0,1,16.38,12.33l-13.87,12.81a31.45,31.45,0,0,0-10.49-8.27,29.23,29.23,0,0,0-12.75-2.8,31.17,31.17,0,0,0-11.88,2.2,27.62,27.62,0,0,0-9.38,6.2,28,28,0,0,0-6.14,9.47,34.86,34.86,0,0,0,0,24.27,27.62,27.62,0,0,0,15.52,15.68,31.37,31.37,0,0,0,11.88,2.2,28.72,28.72,0,0,0,12.75-2.87,32.2,32.2,0,0,0,10.49-8.34l13.87,12.81a42.79,42.79,0,0,1-16.38,12.4A54.12,54.12,0,0,1,3597,2152Z" transform="translate(0 110)"/><path d="M3671.1,2150.39h-21.53V2057h21.53Zm43.44-38.28h-45.16v-18.27h45.16ZM3713,2057h21.39v93.37H3713Z" transform="translate(0 110)"/><path d="M3744.13,2150.39,3785.2,2057h21.13l41.46,93.37h-22.45L3791.4,2068H3800l-33.94,82.43Zm20.73-20,5.41-16.4h47.81l5.55,16.4Z" transform="translate(0 110)"/><path d="M3857.43,2150.39V2057H3879v75.76h46.09v17.61Z" transform="translate(0 110)"/><path d="M4015.64,2152q-19.68,0-30.77-11.07t-11.09-31.74V2057h21.52v51.62q0,13.21,5.42,19.14t15.05,5.94q9.77,0,15.19-5.94t5.41-19.14V2057h21v52.16q0,20.67-11.09,31.74T4015.64,2152Z" transform="translate(0 110)"/><path d="M4078.63,2150.39V2057h17.7l54.54,67.23h-8.59V2057h21.13v93.37h-17.69l-54.54-67.22h8.58v67.22Z" transform="translate(0 110)"/><path d="M4185.33,2150.39V2057h21.53v93.37Z" transform="translate(0 110)"/><path d="M4255.85,2150.39l-40-93.37h23.24l34.87,82.7h-13.61l35.4-82.7H4317l-40,93.37Z" transform="translate(0 110)"/><path d="M4345.92,2133.05h50.31v17.34h-71.57V2057h69.86v17.34h-48.6Zm-1.59-38.55h44.51v16.94h-44.51Z" transform="translate(0 110)"/><path d="M4413.27,2150.39V2057h40q12.42,0,21.4,4.07a31.54,31.54,0,0,1,13.86,11.67,32.56,32.56,0,0,1,4.89,18q0,10.53-4.89,18.07a30.7,30.7,0,0,1-13.86,11.47q-9,3.95-21.4,3.94H4425l9.77-9.34v35.48Zm21.52-33.08L4425,2107h27.07q9.78,0,14.79-4.27t5-12q0-7.74-5-11.94t-14.79-4.2H4425l9.77-10.27Zm37.38,33.08-23.25-33.88h23l23.25,33.88Z" transform="translate(0 110)"/><path d="M4540.84,2152a75.41,75.41,0,0,1-21.33-3q-10.24-3-16.44-7.8l7.26-16.28a50.24,50.24,0,0,0,14,7,51.9,51.9,0,0,0,16.51,2.73,32.33,32.33,0,0,0,10.23-1.33,12.71,12.71,0,0,0,5.75-3.54,7.73,7.73,0,0,0,1.84-5.13,7.08,7.08,0,0,0-2.9-5.94,23.57,23.57,0,0,0-7.73-3.6q-4.81-1.4-10.5-2.67t-11.42-3.06a45.74,45.74,0,0,1-10.56-4.81,22.37,22.37,0,0,1-7.66-7.87,23.82,23.82,0,0,1-2.84-12.2,26.5,26.5,0,0,1,4.22-14.6q4.23-6.62,12.88-10.54t21.72-3.94a70.85,70.85,0,0,1,17.24,2.14,50.75,50.75,0,0,1,14.85,6.13l-6.73,16.28a53.64,53.64,0,0,0-12.81-5.41,48.18,48.18,0,0,0-12.68-1.8,30.41,30.41,0,0,0-10.17,1.4,11.86,11.86,0,0,0-5.61,3.8,8.77,8.77,0,0,0-1.78,5.34,7.25,7.25,0,0,0,2.9,6,21.21,21.21,0,0,0,7.66,3.54q4.76,1.26,10.57,2.53a116.29,116.29,0,0,1,11.49,3.14,50.86,50.86,0,0,1,10.43,4.73,21.82,21.82,0,0,1,10.7,19.81,25.7,25.7,0,0,1-4.3,14.4q-4.29,6.54-13,10.54T4540.84,2152Z" transform="translate(0 110)"/><path d="M4594.58,2150.39V2057h21.53v93.37Z" transform="translate(0 110)"/><path d="M4657,2150.39v-75.76h-29.58V2057H4708v17.61h-29.58v75.76Z" transform="translate(0 110)"/><path d="M4740.77,2150.39v-38.15l4.89,13.07L4704.85,2057h22.85l31.17,52.29h-13.08l31.3-52.29H4798l-40.55,68.29,4.89-13.07v38.15Z" transform="translate(0 110)"/><path d="M2924.24,2312a55,55,0,0,1-19.88-3.53A46.37,46.37,0,0,1,2878,2283.1a51.49,51.49,0,0,1,0-38.68,46.35,46.35,0,0,1,10.56-15.34,47.55,47.55,0,0,1,16-10.07,58.2,58.2,0,0,1,41.67.67,42.2,42.2,0,0,1,16.37,12.34l-13.86,12.8a31.71,31.71,0,0,0-10.5-8.27,29.23,29.23,0,0,0-12.75-2.8,31.21,31.21,0,0,0-11.88,2.2,27.57,27.57,0,0,0-15.52,15.67,34.89,34.89,0,0,0,0,24.28,28,28,0,0,0,6.14,9.47,27.72,27.72,0,0,0,9.38,6.2,31.21,31.21,0,0,0,11.88,2.2,28.59,28.59,0,0,0,12.75-2.87,32.44,32.44,0,0,0,10.5-8.33l13.86,12.8a42.86,42.86,0,0,1-16.37,12.41A54.36,54.36,0,0,1,2924.24,2312Z" transform="translate(0 110)"/><path d="M3023.41,2312a55.17,55.17,0,0,1-20.2-3.6,48.85,48.85,0,0,1-16.12-10.13,46,46,0,0,1-10.63-15.34,51.11,51.11,0,0,1,0-38.48,46,46,0,0,1,10.63-15.27,48.91,48.91,0,0,1,16-10.14,54.69,54.69,0,0,1,20.14-3.6,55.73,55.73,0,0,1,20.14,3.53,48.21,48.21,0,0,1,16,10.07,45.66,45.66,0,0,1,10.63,15.34,51.31,51.31,0,0,1,0,38.61,45.45,45.45,0,0,1-10.63,15.41,48.05,48.05,0,0,1-16,10.07A55.37,55.37,0,0,1,3023.41,2312Zm-.13-18.27a29,29,0,0,0,11.42-2.2,27.79,27.79,0,0,0,9.18-6.27,28.91,28.91,0,0,0,6.14-9.47,34.5,34.5,0,0,0,0-24.14,28.91,28.91,0,0,0-6.14-9.47,27.79,27.79,0,0,0-9.18-6.27,29,29,0,0,0-11.42-2.2,29.52,29.52,0,0,0-11.49,2.2,27,27,0,0,0-9.18,6.27,29.39,29.39,0,0,0-6.07,9.47,34.5,34.5,0,0,0,0,24.14,29.39,29.39,0,0,0,6.07,9.47,27,27,0,0,0,9.18,6.27A29.52,29.52,0,0,0,3023.28,2293.77Z" transform="translate(0 110)"/><path d="M3093.67,2310.44v-93.36h17.69l39.36,65.89h-9.38l38.56-65.89h17.83v93.36h-19.94l-.26-62.28h4l-31.17,52.28h-9.51l-31.56-52.28h4.36v62.28Z" transform="translate(0 110)"/><path d="M3223.48,2310.44v-93.36h40q12.42,0,21.4,4.07a31.36,31.36,0,0,1,13.86,11.67,32.55,32.55,0,0,1,4.89,18q0,10.54-4.89,18.08a32,32,0,0,1-13.86,11.67q-9,4.13-21.4,4.13h-28.26L3245,2275v35.48Zm21.53-33.07-9.78-10.27h27.08q9.77,0,14.79-4.27t5-12q0-7.72-5-11.93t-14.79-4.21h-27.08l9.78-10.27Z" transform="translate(0 110)"/><path d="M3363.2,2312q-19.68,0-30.77-11.07t-11.09-31.74v-52.15h21.52v51.62q0,13.2,5.42,19.14t15,5.93q9.78,0,15.19-5.93t5.42-19.14v-51.62h21v52.15q0,20.67-11.09,31.74T3363.2,2312Z" transform="translate(0 110)"/><path d="M3447.46,2310.44v-75.76h-29.59v-17.6h80.56v17.6h-29.58v75.76Z" transform="translate(0 110)"/><path d="M3534.88,2293.1h50.32v17.34h-71.58v-93.36h69.86v17.34h-48.6Zm-1.59-38.54h44.51v16.94h-44.51Z" transform="translate(0 110)"/><path d="M3605.93,2310.44v-93.36h40q12.42,0,21.4,4.07a31.41,31.41,0,0,1,13.86,11.67,32.55,32.55,0,0,1,4.89,18q0,10.54-4.89,18.08a30.83,30.83,0,0,1-13.86,11.47q-9,3.93-21.4,3.93h-28.26l9.77-9.34v35.48Zm21.52-33.07-9.77-10.27h27.07q9.78,0,14.79-4.27t5-12q0-7.72-5-11.93t-14.79-4.21h-27.07l9.77-10.27Zm37.38,33.07-23.25-33.87h23l23.25,33.87Z" transform="translate(0 110)"/><path d="M3778.26,2312a75.39,75.39,0,0,1-21.32-3q-10.24-3-16.45-7.8l7.27-16.27a50.58,50.58,0,0,0,14,7,51.94,51.94,0,0,0,16.51,2.73,32.35,32.35,0,0,0,10.24-1.33,12.75,12.75,0,0,0,5.74-3.53,7.77,7.77,0,0,0,1.85-5.14,7.05,7.05,0,0,0-2.9-5.93,23.88,23.88,0,0,0-7.73-3.61c-3.22-.93-6.71-1.82-10.5-2.66s-7.59-1.87-11.42-3.07a46,46,0,0,1-10.57-4.8,22.54,22.54,0,0,1-7.66-7.87,24,24,0,0,1-2.84-12.21,26.51,26.51,0,0,1,4.23-14.6q4.23-6.6,12.88-10.54t21.72-3.93a70.7,70.7,0,0,1,17.23,2.13,50.66,50.66,0,0,1,14.86,6.14l-6.73,16.27a53.6,53.6,0,0,0-12.81-5.4,48.23,48.23,0,0,0-12.68-1.8,30.12,30.12,0,0,0-10.17,1.4,11.74,11.74,0,0,0-5.61,3.8,8.73,8.73,0,0,0-1.79,5.33,7.26,7.26,0,0,0,2.91,6,21.21,21.21,0,0,0,7.66,3.53q4.76,1.28,10.56,2.53a117.55,117.55,0,0,1,11.49,3.14,51.24,51.24,0,0,1,10.44,4.73,21.79,21.79,0,0,1,10.69,19.81,25.72,25.72,0,0,1-4.29,14.41q-4.29,6.52-13,10.53T3778.26,2312Z" transform="translate(0 110)"/><path d="M3880,2312a55,55,0,0,1-19.88-3.53,46.37,46.37,0,0,1-26.41-25.41,51.62,51.62,0,0,1,0-38.68,46.35,46.35,0,0,1,10.56-15.34,47.55,47.55,0,0,1,16-10.07,58.2,58.2,0,0,1,41.67.67,42.2,42.2,0,0,1,16.37,12.34l-13.86,12.8a31.51,31.51,0,0,0-10.5-8.27,29.21,29.21,0,0,0-12.74-2.8,31.22,31.22,0,0,0-11.89,2.2,28,28,0,0,0-9.38,6.2,28.26,28.26,0,0,0-6.14,9.47,34.89,34.89,0,0,0,0,24.28,28.16,28.16,0,0,0,6.14,9.47,27.82,27.82,0,0,0,9.38,6.2,31.22,31.22,0,0,0,11.89,2.2,28.57,28.57,0,0,0,12.74-2.87,32.23,32.23,0,0,0,10.5-8.33l13.86,12.8a42.86,42.86,0,0,1-16.37,12.41A54.32,54.32,0,0,1,3880,2312Z" transform="translate(0 110)"/><path d="M3936.2,2310.44v-93.36h21.53v93.36Z" transform="translate(0 110)"/><path d="M4004.48,2293.1h50.31v17.34h-71.57v-93.36h69.86v17.34h-48.6Zm-1.59-38.54h44.51v16.94h-44.51Z" transform="translate(0 110)"/><path d="M4075.52,2310.44v-93.36h17.7l54.54,67.22h-8.58v-67.22h21.13v93.36h-17.7l-54.54-67.22h8.58v67.22Z" transform="translate(0 110)"/><path d="M4230.17,2312a55,55,0,0,1-19.88-3.53,46.37,46.37,0,0,1-26.41-25.41,51.62,51.62,0,0,1,0-38.68,46.35,46.35,0,0,1,10.56-15.34,47.55,47.55,0,0,1,16-10.07,58.2,58.2,0,0,1,41.67.67,42.2,42.2,0,0,1,16.37,12.34l-13.86,12.8a31.51,31.51,0,0,0-10.5-8.27,29.21,29.21,0,0,0-12.74-2.8,31.22,31.22,0,0,0-11.89,2.2,28,28,0,0,0-9.38,6.2,28.26,28.26,0,0,0-6.14,9.47,34.89,34.89,0,0,0,0,24.28,28.16,28.16,0,0,0,6.14,9.47,27.82,27.82,0,0,0,9.38,6.2,31.22,31.22,0,0,0,11.89,2.2,28.57,28.57,0,0,0,12.74-2.87,32.23,32.23,0,0,0,10.5-8.33l13.86,12.8a42.86,42.86,0,0,1-16.37,12.41A54.32,54.32,0,0,1,4230.17,2312Z" transform="translate(0 110)"/><path d="M4307.68,2293.1H4358v17.34h-71.58v-93.36h69.86v17.34h-48.6Zm-1.58-38.54h44.5v16.94h-44.5Z" transform="translate(0 110)"/><path class="cls-4" d="M1478,1672.36c-2.71-5.93-6.14-11.67-8-17.83-11.39-37.73-21.5-75.83-33.81-113.28q-27-82.05-56.49-163.35c-14.82-41-30.3-81.88-47.24-122.15Q1295.6,1168,1256,1081.28c-18.17-39.78-38.16-78.83-58.07-117.86-18.6-36.46-37.28-72.93-57.55-108.57-30.25-53.21-60.95-106.23-93.26-158.32-33.51-54-68.43-107.27-104.09-160-28.62-42.35-58.54-84-89.22-125-28.16-37.67-57.67-74.46-87.41-111-25.24-31.05-51.63-61.26-77.53-91.83-12.33-14.54-24.57-29.15-37.08-43.55-4.45-5.11-9.79-9.53-14.35-14.57-2.38-2.64-3.95-5.95-7-10.69,58.33-18.12,114.55-36.09,168.31-60S905.05,29.52,955.77,0c4,1.82,7.39,3.14,10.56,4.81,34.78,18.23,68.93,37.65,104.46,54.45,31.32,14.82,64,27.24,96.42,39.79,49.58,19.16,100.65,34.23,152.53,46.68,23.3,5.59,46.94,10,70.59,14.17,26.56,4.67,53.2,9.14,80,12.43,24.79,3,49.8,4.57,74.74,6.52,37.3,2.91,74.66,4.89,112.1,3.73,15-.46,29.92-2.15,44.9-3.14,13.31-.88,26.7-1.09,40-2.42,24.21-2.42,48.42-5.08,72.52-8.35,19.77-2.68,39.41-6.24,59-9.7,9.52-1.68,18.87-4.18,28.37-6,3.13-.59,6.48-.09,10.77-.09.69,3.32,1.54,6.26,1.87,9.24,10.55,95.66,4.82,191.62,6.2,287.45.47,33-2.38,65.68-5.77,98.43-2.64,25.47-4.26,51-6.55,76.53-.62,6.91-2.18,13.75-3.08,20.65-1.67,12.85-3,25.74-4.78,38.58-2,14.73-4.34,29.43-6.59,44.13-3.93,25.64-7.34,51.37-12,76.88-4.66,25.23-10.33,50.3-16.13,75.33-6.29,27.17-12.6,54.37-20.08,81.27-8.43,30.27-17.91,60.29-27.43,90.28-6.54,20.6-13.26,41.21-21.08,61.4-14.72,38-30,75.84-45.59,113.58-21.27,51.67-46.59,101.63-73.81,150.67-19.58,35.28-39.92,70.24-61.49,104.46-22.26,35.3-45.8,69.91-69.92,104.11-19.85,28.14-41.38,55.22-62.14,82.78-1,1.29-1.72,2.72-2.57,4.08Z" transform="translate(0 110)"/><path class="cls-5" d="M42.56,701.59A74.9,74.9,0,0,1,49.73,705c29.88,18,60,35.66,89.51,54.09,30.68,19.14,60.87,39,91.22,58.59,22.35,14.44,44.77,28.8,66.87,43.58,21,14,41.7,28.48,62.4,42.92,34.39,24,68.88,47.88,102.94,72.3,22.33,16,43.94,32.92,65.92,49.37,23,17.25,46.38,34.15,69.13,51.74,20.94,16.19,41.32,33,61.84,49.68q31.91,25.93,63.6,52.12c15.84,13.1,31.63,26.25,47.18,39.65,84.1,72.44,164.31,148.67,244,225.42,18.47,17.79,35.44,37,53.27,55.37,12.2,12.58,25,24.69,37,37.39,19.19,20.21,38.05,40.7,57,61.14q28.71,31,57.23,62.21c6.76,7.41,13.21,15.09,19.73,22.7q38.54,44.9,77,89.84c8.4,9.83,16.68,19.76,24.7,29.87,2.91,3.67,4.9,8,8,13.17-112.28,121.65-240.62,224.08-382.9,310.11-10.16-.12-14.93-7.22-21.1-11.65-15.68-11.27-31-23.06-46-35-17.91-14.2-35.8-28.46-53.11-43.31-32.91-28.24-65.81-56.5-97.92-85.55-22.21-20.1-43.46-41.19-64.45-62.46-26-26.32-51.4-53.15-76.77-80-41.45-43.87-79.59-90.31-116.68-137.48q-33.5-42.61-64.44-87-42.87-61.32-83.74-123.89c-14.43-22-27.28-45-40.32-67.79-14.47-25.29-29.36-50.43-42.25-76.44-24.82-50.11-48.7-100.64-72.35-151.26-27.22-58.23-49.82-118.18-70.07-178.84-17-51-32.52-102.42-47.31-154-9-31.41-15.32-63.51-23-95.26-1.93-8-4.53-15.86-6.65-23.82C38.11,708.78,37.36,704.93,42.56,701.59Z" transform="translate(0 110)"/><path class="cls-6" d="M7.89,152.79c17.87,3.05,34.55,6.08,51.28,8.72,25.67,4.06,51.27,8.85,77.11,11.5,29.48,3,59.22,3.72,88.79,6.07,28.88,2.29,58.28,2.36,85.8,12.33,15.55,5.63,30.54,12.76,45.39,20a302.76,302.76,0,0,1,33.55,18.68c15.92,10.39,31.91,20.88,46.5,32.82,25,20.46,49.84,41.21,73,63.44,24.14,23.13,46.71,47.79,69.12,72.46,22.84,25.16,45.63,50.46,66.69,76.94,31.93,40.15,62.86,81,93.26,122.24,22.37,30.32,43.22,61.63,64.76,92.49,30.41,43.58,58.15,88.66,85,134.29,18.67,31.79,38.27,63.09,57.4,94.64,25,41.15,49.73,82.4,74.78,123.49,15.37,25.21,31.18,50.17,46.69,75.3,26,42.07,51.69,84.27,77.77,126.27,20,32.18,40.46,64.1,60.55,96.22,21.1,33.76,41.79,67.75,63.07,101.41,29,45.87,58.41,91.53,87.64,137.28q39.17,61.32,78.31,122.65c6.86,10.76,6.64,14.8-1.5,24.91-8.71,10.8-17.39,21.63-26.44,32.17-2.51,2.93-6.32,4.86-10.83,8.21-4.17-6.56-7.43-11.58-10.58-16.65-31.85-51.27-63.14-102.85-95.71-153.69-20.79-32.46-42.89-64.21-65.47-95.59-22.19-30.84-45.65-60.88-68.72-91.15-16.82-22-33.48-44.23-51-65.8q-48.49-59.81-98-118.87c-19.54-23.23-39.47-46.25-60.57-68.21-28.77-30-58.65-58.94-88.38-88-17.4-17-34.82-34.12-53.33-50-29.14-25.07-58.76-49.68-89-73.55-27.94-22.06-56.34-43.7-85.68-64-35-24.3-71-47.4-107.06-70.36-39.38-25.07-79.46-49.17-119-74.07-59.77-37.69-120.38-74.27-177.68-115.33-31.39-22.49-62.87-45.06-92.33-69.71-34.34-28.72-66-60.23-88.71-98.54A170.51,170.51,0,0,1,31,425.06C19.15,392.4,11.7,358.79,5.46,324.71-1.81,285,.3,245.23.25,205.44.23,188.15,3.05,171,7.89,152.79Z" transform="translate(0 110)"/></svg>