<svg id="Layer_1" data-name="Layer 1" xmlns="http://www.w3.org/2000/svg" viewBox="0 0 1921.14 2126.29"><defs><style>.cls-1{fill:#fff;}</style></defs><path class="cls-1" d="M1478,1672.36c-2.71-5.93-6.14-11.67-8-17.83-11.39-37.73-21.5-75.83-33.81-113.28q-27-82.05-56.49-163.35c-14.82-41-30.3-81.88-47.24-122.15Q1295.6,1168,1256,1081.28c-18.17-39.78-38.16-78.83-58.07-117.86-18.6-36.46-37.28-72.93-57.55-108.57-30.25-53.21-60.95-106.23-93.26-158.32-33.51-54-68.43-107.27-104.09-160-28.62-42.35-58.54-84-89.22-125-28.16-37.67-57.67-74.46-87.41-111-25.24-31.05-51.63-61.26-77.53-91.83-12.33-14.54-24.57-29.15-37.08-43.55-4.45-5.11-9.79-9.53-14.35-14.57-2.38-2.64-3.95-5.95-7-10.69,58.33-18.12,114.55-36.09,168.31-60S905.05,29.52,955.77,0c4,1.82,7.39,3.14,10.56,4.81,34.78,18.23,68.93,37.65,104.46,54.45,31.32,14.82,64,27.24,96.42,39.79,49.58,19.16,100.65,34.23,152.53,46.68,23.3,5.59,46.94,10,70.59,14.17,26.56,4.67,53.2,9.14,80,12.43,24.79,3,49.8,4.57,74.74,6.52,37.3,2.91,74.66,4.89,112.1,3.73,15-.46,29.92-2.15,44.9-3.14,13.31-.88,26.7-1.09,40-2.42,24.21-2.42,48.42-5.08,72.52-8.35,19.77-2.68,39.41-6.24,59-9.7,9.52-1.68,18.87-4.18,28.37-6,3.13-.59,6.48-.09,10.77-.09.69,3.32,1.54,6.26,1.87,9.24,10.55,95.66,4.82,191.62,6.2,287.45.47,33-2.38,65.68-5.77,98.43-2.64,25.47-4.26,51-6.55,76.53-.62,6.91-2.18,13.75-3.08,20.65-1.67,12.85-3,25.74-4.78,38.58-2,14.73-4.34,29.43-6.59,44.13-3.93,25.64-7.34,51.37-12,76.88-4.66,25.23-10.33,50.3-16.13,75.33-6.29,27.17-12.6,54.37-20.08,81.27-8.43,30.27-17.91,60.29-27.43,90.28-6.54,20.6-13.26,41.21-21.08,61.4-14.72,38-30,75.84-45.59,113.58-21.27,51.67-46.59,101.63-73.81,150.67-19.58,35.28-39.92,70.24-61.49,104.46-22.26,35.3-45.8,69.91-69.92,104.11-19.85,28.14-41.38,55.22-62.14,82.78-1,1.29-1.72,2.72-2.57,4.08Z"/><path class="cls-1" d="M42.56,701.59A74.9,74.9,0,0,1,49.73,705c29.88,18,60,35.66,89.51,54.09,30.68,19.14,60.87,39,91.22,58.59,22.35,14.44,44.77,28.8,66.87,43.58,21,14,41.7,28.48,62.4,42.92,34.39,24,68.88,47.88,102.94,72.3,22.33,16,43.94,32.92,65.92,49.37,23,17.25,46.38,34.15,69.13,51.74,20.94,16.19,41.32,33,61.84,49.68q31.91,25.93,63.6,52.12c15.84,13.1,31.63,26.25,47.18,39.65,84.1,72.44,164.31,148.67,244,225.42,18.47,17.79,35.44,37,53.27,55.37,12.2,12.58,25,24.69,37,37.39,19.19,20.21,38.05,40.7,57,61.14q28.71,31,57.23,62.21c6.76,7.41,13.21,15.09,19.73,22.7q38.54,44.9,77,89.84c8.4,9.83,16.68,19.76,24.7,29.87,2.91,3.67,4.9,8,8,13.17-112.28,121.65-240.62,224.08-382.9,310.11-10.16-.12-14.93-7.22-21.1-11.65-15.68-11.27-31-23.06-46-35-17.91-14.2-35.8-28.46-53.11-43.31-32.91-28.24-65.81-56.5-97.92-85.55-22.21-20.1-43.46-41.19-64.45-62.46-26-26.32-51.4-53.15-76.77-80-41.45-43.87-79.59-90.31-116.68-137.48q-33.5-42.61-64.44-87-42.87-61.32-83.74-123.89c-14.43-22-27.28-45-40.32-67.79-14.47-25.29-29.36-50.43-42.25-76.44-24.82-50.11-48.7-100.64-72.35-151.26-27.22-58.23-49.82-118.18-70.07-178.84-17-51-32.52-102.42-47.31-154-9-31.41-15.32-63.51-23-95.26-1.93-8-4.53-15.86-6.65-23.82C38.11,708.78,37.36,704.93,42.56,701.59Z"/><path class="cls-1" d="M7.89,152.79c17.87,3.05,34.55,6.08,51.28,8.72,25.67,4.06,51.27,8.85,77.11,11.5,29.48,3,59.22,3.72,88.79,6.07,28.88,2.29,58.28,2.36,85.8,12.33,15.55,5.63,30.54,12.76,45.39,20a302.76,302.76,0,0,1,33.55,18.68c15.92,10.39,31.91,20.88,46.5,32.82,25,20.46,49.84,41.21,73,63.44,24.14,23.13,46.71,47.79,69.12,72.46,22.84,25.16,45.63,50.46,66.69,76.94,31.93,40.15,62.86,81,93.26,122.24,22.37,30.32,43.22,61.63,64.76,92.49,30.41,43.58,58.15,88.66,85,134.29,18.67,31.79,38.27,63.09,57.4,94.64,25,41.15,49.73,82.4,74.78,123.49,15.37,25.21,31.18,50.17,46.69,75.3,26,42.07,51.69,84.27,77.77,126.27,20,32.18,40.46,64.1,60.55,96.22,21.1,33.76,41.79,67.75,63.07,101.41,29,45.87,58.41,91.53,87.64,137.28q39.17,61.32,78.31,122.65c6.86,10.76,6.64,14.8-1.5,24.91-8.71,10.8-17.39,21.63-26.44,32.17-2.51,2.93-6.32,4.86-10.83,8.21-4.17-6.56-7.43-11.58-10.58-16.65-31.85-51.27-63.14-102.85-95.71-153.69-20.79-32.46-42.89-64.21-65.47-95.59-22.19-30.84-45.65-60.88-68.72-91.15-16.82-22-33.48-44.23-51-65.8q-48.49-59.81-98-118.87c-19.54-23.23-39.47-46.25-60.57-68.21-28.77-30-58.65-58.94-88.38-88-17.4-17-34.82-34.12-53.33-50-29.14-25.07-58.76-49.68-89-73.55-27.94-22.06-56.34-43.7-85.68-64-35-24.3-71-47.4-107.06-70.36-39.38-25.07-79.46-49.17-119-74.07-59.77-37.69-120.38-74.27-177.68-115.33-31.39-22.49-62.87-45.06-92.33-69.71-34.34-28.72-66-60.23-88.71-98.54A170.51,170.51,0,0,1,31,425.06C19.15,392.4,11.7,358.79,5.46,324.71-1.81,285,.3,245.23.25,205.44.23,188.15,3.05,171,7.89,152.79Z"/></svg>